<?xml version="1.0" standalone="no"?><!DOCTYPE svg PUBLIC "-//W3C//DTD SVG 1.1//EN" "http://www.w3.org/Graphics/SVG/1.1/DTD/svg11.dtd"><svg t="1746501848563" class="icon" viewBox="0 0 1024 1024" version="1.1" xmlns="http://www.w3.org/2000/svg" p-id="2883" xmlns:xlink="http://www.w3.org/1999/xlink" width="200" height="200"><path d="M425.13157 941.285362C285.347443 863.627513 190.713228 713.007407 190.713228 541.798942c0-40.81552 4.695591-80.186243 15.531569-117.028572C263.675485 503.511817 370.229277 556.246914 492.314638 556.246914c183.128042 0 331.219753-118.473369 331.219754-265.481482 0-34.675132-8.307584-68.266667-23.839154-99.329806-76.57425-68.266667-176.987654-108.720988-288.237037-108.720988-239.113933 0-434.161552 193.602822-434.161552 434.161552 1.083598 209.134392 150.620106 383.593651 347.834921 424.409172z m504.595414-544.327337c10.835979 37.203527 16.615168 77.657848 16.615168 118.473368 0 34.675132-3.611993 68.266667-11.919577 100.413404-3.611993 1.083598-6.140388 2.528395-7.223986 3.611993-38.287125 25.283951-168.680071 97.885009-373.118871 45.511111-47.678307-11.919577-91.022222-29.979541-135.088536-52.735097-1.083598 1.444797 318.216578 63.571076 510.735802-215.274779z m-54.902293 356.503703c-59.959083 92.10582-154.232099 158.92769-264.397883 184.211641C288.959436 840.871958 220.692769 483.284656 220.692769 483.284656c142.312522 213.829982 362.282892 345.667725 654.131922 270.177072z" fill="#1C4776" p-id="2884"></path></svg>